<svg width="120" height="107" viewBox="0 0 120 107" fill="none" xmlns="http://www.w3.org/2000/svg">
<path d="M89.0745 3.48051C84.531 -1.31583 76.6033 1.97091 76.6033 8.63992V48.0998C76.6033 49.3419 76.3602 50.5649 75.8554 51.6923C75.6684 52.1318 75.4441 52.5331 75.2197 52.8962C72.3029 57.5779 65.8336 58.2085 62.0006 54.2338L43.2097 34.7236L12.4712 2.27665C7.9464 -2.51969 0 0.767045 0 7.43606V68.2598C0 70.4191 0.822686 72.502 2.29978 74.0498L30.9255 104.28C35.469 109.076 43.3967 105.79 43.3967 99.1207V57.9027C43.3967 55.8007 44.1072 53.7561 45.4534 52.1509C45.5843 51.9981 45.7152 51.8452 45.8461 51.7114C49.1555 48.2909 54.5964 48.3865 57.8872 51.8261L76.5846 71.2408L107.454 104.662C111.96 109.535 120 106.287 120 99.5602V39.5008C120 37.3415 119.177 35.2587 117.7 33.7108L89.0745 3.48051Z" fill="url(#paint0_linear_309_22)"/>
<defs>
<linearGradient id="paint0_linear_309_22" x1="-12.1907" y1="53.5077" x2="130.508" y2="53.5077" gradientUnits="userSpaceOnUse">
<stop stop-color="#AD53AD"/>
<stop offset="1" stop-color="#2D328D"/>
</linearGradient>
</defs>
</svg>
